# File created by Blade
# Date/Time:  Thu Sep 25 18:39:44 2014
# Frame Rate: 120.000 fps
#------------------------------------------------------
:FULLY-SPECIFIED
:DEGREES
653
root -1.070560 33.148208 -1.907722 7.834566 8.770469 -0.511110
Spine -13.856045 5.327100 -0.761938
Head 5.057376 -19.730672 2.884483
LeftShoulder -12.004087 -7.001661 46.741078
LeftArm 95.570511 -72.367976 -82.335176
LeftForeArm -34.390379 -0.000000 114.360469
LeftHand -26.730040 -0.000000 6.102932
LeftHandThumb1 -26.253704 0.000000 33.147579
RightShoulder -124.712914 32.657471 -207.203730
RightArm -17.280573 2.074846 58.926795
RightForeArm 39.989404 0.000000 157.776374
RightHand 7.197260 -0.000000 25.674346
RightHandThumb1 -24.326973 -0.000000 -32.862282
LeftUpLeg -0.718436 3.330813 2.509251
LeftLeg -1.797550 -0.000000 0.000000
LeftFoot -7.362874 -0.564814 -11.159783
LeftToeBase 9.882770 -0.000000 -0.000000
RightUpLeg -0.471309 -9.610767 0.816920
RightLeg 0.709247 -0.000000 -0.000000
RightFoot -7.559758 -4.052426 1.126066
RightToeBase -0.702029 -0.000000 0.000000
654
root -1.070524 33.147983 -1.906133 7.837834 8.767300 -0.508994
Spine -13.877609 5.331763 -0.764151
Head 5.091972 -19.662057 2.874809
LeftShoulder -11.994151 -6.944880 46.744812
LeftArm 95.693179 -72.365661 -82.469618
LeftForeArm -34.434379 -0.000000 114.380163
LeftHand -26.759257 -0.000000 6.095402
LeftHandThumb1 -26.253704 0.000000 33.147579
RightShoulder -124.691429 32.834814 -207.017988
RightArm -17.058643 2.142270 58.948500
RightForeArm 39.914665 0.000000 157.773961
RightHand 7.319998 -0.000000 25.581746
RightHandThumb1 -24.326973 -0.000000 -32.862282
LeftUpLeg -0.722093 3.339900 2.506139
LeftLeg -1.786733 -0.000000 0.000000
LeftFoot -7.373123 -0.568672 -11.156853
LeftToeBase 9.884596 -0.000000 -0.000000
RightUpLeg -0.463491 -9.586563 0.814829
RightLeg 0.693131 -0.000000 -0.000000
RightFoot -7.560650 -4.083144 1.115854
RightToeBase -0.723143 -0.000000 0.000000
655
root -1.069253 33.148019 -1.903806 7.832245 8.766689 -0.506250
Spine -13.887326 5.333160 -0.765598
Head 5.124053 -19.589250 2.875695
LeftShoulder -11.980098 -6.902374 46.751462
LeftArm 95.774483 -72.373992 -82.552614
LeftForeArm -34.432232 -0.000000 114.386528
LeftHand -26.773403 -0.000000 6.115821
LeftHandThumb1 -26.253704 0.000000 33.147579
RightShoulder -124.733146 32.868758 -206.972425
RightArm -16.969787 2.164566 58.963199
RightForeArm 39.883411 0.000000 157.760973
RightHand 7.360741 -0.000000 25.599921
RightHandThumb1 -24.326973 -0.000000 -32.862282
LeftUpLeg -0.712239 3.330406 2.502707
LeftLeg -1.786753 -0.000000 0.000000
LeftFoot -7.374921 -0.567685 -11.170946
LeftToeBase 9.882540 -0.000000 -0.000000
RightUpLeg -0.451571 -9.588643 0.808502
RightLeg 0.689922 -0.000000 -0.000000
RightFoot -7.554007 -4.080453 1.113130
RightToeBase -0.745749 -0.000000 0.000000
656
root -1.069007 33.148082 -1.902613 7.831748 8.771183 -0.501233
Spine -13.896736 5.336970 -0.776390
Head 5.150531 -19.524276 2.902794
LeftShoulder -11.928311 -6.894712 46.779066
LeftArm 95.773278 -72.432291 -82.576976
LeftForeArm -34.461477 0.000000 114.405865
LeftHand -26.772760 -0.000000 6.118715
LeftHandThumb1 -26.253704 0.000000 33.147579
RightShoulder -124.760311 32.838467 -206.972542
RightArm -16.992352 2.138861 58.985818
RightForeArm 39.833572 -0.000000 157.740277
RightHand 7.498890 -0.000000 25.709457
RightHandThumb1 -24.326973 -0.000000 -32.862282
LeftUpLeg -0.709430 3.325181 2.498511
LeftLeg -1.788326 -0.000000 0.000000
LeftFoot -7.365866 -0.570869 -11.168799
LeftToeBase 9.847687 -0.000000 -0.000000
RightUpLeg -0.448751 -9.597934 0.804487
RightLeg 0.692395 -0.000000 -0.000000
RightFoot -7.560717 -4.083183 1.101859
RightToeBase -0.726328 -0.000000 0.000000
657
root -1.068211 33.147948 -1.901523 7.830202 8.777961 -0.499720
Spine -13.902853 5.337974 -0.774397
Head 5.165463 -19.454301 2.917651
LeftShoulder -11.922733 -6.875454 46.782647
LeftArm 95.808313 -72.419302 -82.610626
LeftForeArm -34.497895 -0.000000 114.402055
LeftHand -26.783024 -0.000000 6.088758
LeftHandThumb1 -26.253704 0.000000 33.147579
RightShoulder -124.787264 32.874020 -206.953436
RightArm -16.940311 2.197103 58.961639
RightForeArm 39.908692 0.000000 157.754058
RightHand 7.442677 -0.000000 25.775233
RightHandThumb1 -24.326973 -0.000000 -32.862282
LeftUpLeg -0.705904 3.304672 2.496775
LeftLeg -1.787128 -0.000000 0.000000
LeftFoot -7.378914 -0.542820 -11.154487
LeftToeBase 9.871604 -0.000000 -0.000000
RightUpLeg -0.442898 -9.596798 0.802224
RightLeg 0.691382 -0.000000 -0.000000
RightFoot -7.570392 -4.086057 1.117041
RightToeBase -0.700495 -0.000000 0.000000
658
root -1.067348 33.147985 -1.900757 7.826246 8.774386 -0.497360
Spine -13.901418 5.337356 -0.772810
Head 5.184860 -19.371383 2.934563
LeftShoulder -11.921567 -6.859711 46.781465
LeftArm 95.810119 -72.414251 -82.589278
LeftForeArm -34.526797 0.000000 114.389820
LeftHand -26.782736 -0.000000 6.110522
LeftHandThumb1 -26.253704 0.000000 33.147579
RightShoulder -124.817626 32.874805 -206.946039
RightArm -16.921937 2.215582 58.966528
RightForeArm 39.913425 -0.000000 157.736300
RightHand 7.481580 -0.000000 25.912207
RightHandThumb1 -24.326973 -0.000000 -32.862282
LeftUpLeg -0.699066 3.305875 2.492561
LeftLeg -1.786863 -0.000000 0.000000
LeftFoot -7.376334 -0.551236 -11.172344
LeftToeBase 9.853460 -0.000000 -0.000000
RightUpLeg -0.438259 -9.601172 0.796224
RightLeg 0.691094 -0.000000 -0.000000
RightFoot -7.556886 -4.075266 1.104870
RightToeBase -0.744959 -0.000000 0.000000
